<svg width="24" height="24" viewBox="0 0 24 24" fill="none" xmlns="http://www.w3.org/2000/svg">
    <path d="M23 3C22.1 3.35 21.2 3.58 20.2 3.69C21.2 3.08 22 2.13 22.4 1C21.5 1.56 20.4 1.97 19.3 2.17C18.4 1.23 17.1 0.65 15.7 0.65C13 0.65 10.9 2.75 10.9 5.35C10.9 5.75 10.9 6.14 11 6.51C6.9 6.31 3.2 4.41 0.8 1.51C0.4 2.26 0.2 3.08 0.2 3.97C0.2 5.63 1.2 7.11 2.6 7.97C1.8 7.97 1.1 7.75 0.5 7.42V7.46C0.5 9.77 2.1 11.71 4.2 12.17C3.8 12.28 3.4 12.34 2.9 12.34C2.6 12.34 2.3 12.31 2 12.25C2.6 14.16 4.4 15.54 6.6 15.58C5 16.86 3 17.61 0.8 17.61C0.4 17.61 0.1 17.58 -0.2 17.55C2 18.92 4.6 19.7 7.4 19.7C15.7 19.7 20.2 12.41 20.2 6.07C20.2 5.85 20.2 5.63 20.2 5.41C21.2 4.72 22 3.86 22.6 2.87L23 3Z" stroke="white" stroke-width="2"/>
</svg> 